<?xml version="1.0" encoding="UTF-8"?>
<svg version="1.1" xmlns="http://www.w3.org/2000/svg" width="562" height="425">
<path d="M0 0 C185.46 0 370.92 0 562 0 C562 140.25 562 280.5 562 425 C376.54 425 191.08 425 0 425 C0 284.75 0 144.5 0 0 Z " fill="#09192B" transform="translate(0,0)"/>
<path d="M0 0 C185.46 0 370.92 0 562 0 C562 140.25 562 280.5 562 425 C376.54 425 191.08 425 0 425 C0 284.75 0 144.5 0 0 Z M530.0345459 6.3651886 C515.71779142 7.06369992 501.4235899 7.03773162 487.09375 6.95703125 C484.92407291 6.94655249 482.75439516 6.93620803 480.5847168 6.92599487 C471.62146108 6.88154297 462.65832863 6.83341324 453.6953125 6.75317383 C448.13869538 6.70416029 442.58227258 6.67553251 437.02546692 6.65942955 C434.94305126 6.6496787 432.86065383 6.63270151 430.77836609 6.60764503 C413.37731912 6.40249228 397.15948616 8.64578173 380.5625 14 C378.89196175 14.52354812 377.22138885 15.04698571 375.55078125 15.5703125 C374.77041504 15.81813477 373.99004883 16.06595703 373.18603516 16.32128906 C371.2743206 16.9148301 369.34706769 17.45784603 367.41796875 17.9921875 C358.32625208 20.52576083 350.27773252 24.55462336 342 29 C341.3090625 29.36818848 340.618125 29.73637695 339.90625 30.11572266 C327.28303068 36.88362872 316.21838306 44.5895117 305.77734375 54.41015625 C303.52286267 56.51243607 301.23508176 58.51981067 298.875 60.5 C292.20984526 66.27274908 286.44268461 73.08429524 281 80 C277.46954907 78.82318302 276.89079173 77.8260914 274.75 74.875 C271.96998073 71.1780416 269.05790792 67.93694339 265.73046875 64.734375 C263.96702619 62.96695175 262.40197665 61.11180588 260.8125 59.1875 C236.06917526 30.77647005 195.6243477 16.67615196 160 9 C159.24252975 8.82314667 158.48505951 8.64629333 157.70463562 8.46408081 C149.13787992 6.64987406 140.66151998 6.74454025 131.95703125 6.8046875 C130.51867834 6.80763567 129.08032327 6.80967133 127.64196777 6.81079102 C122.36544535 6.82118866 117.08896915 6.84911081 111.8125 6.875 C94.0853125 6.936875 94.0853125 6.936875 76 7 C76 53.2 76 99.4 76 147 C63.79 146.67 51.58 146.34 39 146 C24.75133731 145.61265348 24.75133731 145.61265348 10.70727539 147.0144043 C9.63578751 147.19794968 8.56429962 147.38149506 7.46034241 147.57060242 C6.64842941 147.71230362 5.83651642 147.85400482 5 148 C4.9771347 182.63416933 4.95950232 217.26833695 4.94893467 251.90251219 C4.94768389 255.98701009 4.94638958 260.07150798 4.94506836 264.15600586 C4.94480605 264.96919077 4.94454374 265.78237567 4.94427348 266.62020255 C4.93991657 279.80477673 4.9320289 292.98934658 4.9228472 306.17391818 C4.91351125 319.69226108 4.90794451 333.2106017 4.90591151 346.7289477 C4.90453616 355.07731829 4.90018492 363.42567663 4.89208353 371.77404345 C4.88681679 377.49092429 4.88519554 383.20779874 4.88649862 388.92468183 C4.88714212 392.22802503 4.88558479 395.53134204 4.88079453 398.83468246 C4.87586467 402.40766372 4.87699908 405.98059127 4.87974548 409.55357361 C4.87683264 410.6089987 4.8739198 411.6644238 4.87091869 412.75183147 C4.87290974 413.70130612 4.87490079 414.65078076 4.87695217 415.62902737 C4.87657245 416.45491908 4.87619273 417.2808108 4.8758015 418.13172954 C4.79497069 420.0145194 4.79497069 420.0145194 6 421 C8.8250333 421.10053508 11.62565285 421.13615716 14.45117188 421.12939453 C15.33728653 421.13114685 16.22340118 421.13289917 17.1363678 421.13470459 C20.08051482 421.1391244 23.02460231 421.13618467 25.96875 421.1328125 C28.00516776 421.1334855 30.04158544 421.1344555 32.07800293 421.13571167 C36.35197716 421.13718882 40.62593053 421.13503355 44.89990234 421.13037109 C50.39158539 421.1246738 55.88321957 421.12795271 61.37490082 421.13394356 C65.58177054 421.13754872 69.78862859 421.13641079 73.99549866 421.13381577 C76.02100124 421.13314637 78.04650486 421.13397535 80.07200623 421.13629532 C82.8976423 421.1388211 85.72319807 421.1349823 88.54882812 421.12939453 C89.81745445 421.13243088 89.81745445 421.13243088 91.11170959 421.13552856 C94.86059746 421.48442377 94.86059746 421.48442377 98 420 C98.09304018 418.52645652 98.11746265 417.04849409 98.11352539 415.57202148 C98.11334412 414.14085999 98.11334412 414.14085999 98.11315918 412.68078613 C98.10804321 411.67108765 98.10292725 410.66138916 98.09765625 409.62109375 C98.09664917 408.69816528 98.09564209 407.77523682 98.09460449 406.82434082 C98.09151765 404.78844163 98.08589084 402.75254511 98.07807255 400.71665859 C98.05713761 395.2297038 98.04381658 389.74272791 98.02952576 384.25575256 C98.02666927 383.1713163 98.02381278 382.08688004 98.02086973 380.96958208 C98.01387734 378.31305481 98.00692171 375.65652745 98 373 C98.81224258 373.01223315 99.62448515 373.0244663 100.46134114 373.03707016 C149.98878798 373.77694878 199.505033 374.15435649 249.03783892 374.13529945 C255.29398743 374.13296162 261.55013322 374.13275246 267.80628204 374.13381577 C268.71845999 374.133969 269.63063795 374.13412223 270.57045765 374.13428011 C272.42671901 374.13460001 274.28298037 374.13492423 276.13924173 374.1352527 C293.24752476 374.13805532 310.35580229 374.13490161 327.46408442 374.12945233 C342.01398215 374.12496133 356.56387193 374.12578924 371.11376953 374.13037109 C388.24352945 374.13576325 405.37328468 374.13780942 422.50304532 374.13475883 C424.33905872 374.13444044 426.17507211 374.13412607 428.01108551 374.13381577 C429.36431128 374.13358435 429.36431128 374.13358435 430.74487494 374.13334826 C436.98233023 374.13249898 443.21978243 374.13391027 449.45723724 374.13629532 C457.07156295 374.13914477 464.68587841 374.1382485 472.300203 374.13301457 C476.78394919 374.13003008 481.2676709 374.12968343 485.75141561 374.13483453 C509.52385179 374.14173894 533.21942638 373.5530366 557 373 C557 251.89 557 130.78 557 6 C543.48314664 5.96172132 543.48314664 5.96172132 530.0345459 6.3651886 Z " fill="#FBFBFB" transform="translate(0,0)"/>
<path d="M0 0 C57.09 0 114.18 0 173 0 C174.14924323 28.73108064 174.14924323 28.73108064 174.12939453 38.10351562 C174.13202301 39.74518204 174.13202301 39.74518204 174.13470459 41.42001343 C174.13898636 44.9154434 174.13624022 48.41081984 174.1328125 51.90625 C174.13348832 54.37919118 174.13446065 56.85213229 174.13571167 59.32507324 C174.13716895 64.44426115 174.13509404 69.56343136 174.13037109 74.68261719 C174.12460182 81.2564963 174.12800991 87.83033522 174.13394356 94.40421295 C174.1375412 99.48087879 174.13641554 104.55753493 174.13381577 109.63420105 C174.13314801 112.06162013 174.13396966 114.48904008 174.13629532 116.91645813 C174.13881645 120.27831407 174.13499231 123.64010228 174.12939453 127.00195312 C174.13141876 128.00636444 174.13344299 129.01077576 174.13552856 130.04562378 C174.13270874 130.9532547 174.12988892 131.86088562 174.12698364 132.79602051 C174.1264181 133.98482189 174.1264181 133.98482189 174.12584114 135.19763947 C174 137 174 137 173 138 C170.94702266 138.16235506 168.88825521 138.25114417 166.82983398 138.31420898 C166.15800898 138.33486734 165.48618397 138.3555257 164.79400063 138.37681007 C162.46566827 138.44454811 160.1372343 138.50247559 157.80859375 138.55859375 C156.97877928 138.57965117 156.14896481 138.60070858 155.29400444 138.6224041 C127.22606107 139.31063013 99.1386846 139.11339928 71.06437528 139.07202756 C63.18461947 139.06062083 55.30486253 139.05529445 47.42510045 139.05032361 C31.28339062 139.04001245 15.14169749 139.0225511 -1 139 C-1.02335259 121.46727101 -1.04099079 103.93454686 -1.05181217 86.40180588 C-1.0569701 78.26119212 -1.06400326 70.12058803 -1.07543945 61.97998047 C-1.08540162 54.88525456 -1.09185709 47.79053564 -1.09408849 40.69580293 C-1.09539299 36.93864975 -1.09846239 33.18151658 -1.10573006 29.42436981 C-1.11377433 25.23179738 -1.11399014 21.03925981 -1.11352539 16.84667969 C-1.11712067 15.59871109 -1.12071594 14.35074249 -1.12442017 13.06495667 C-1.12235817 11.35284248 -1.12235817 11.35284248 -1.12025452 9.60614014 C-1.12163721 8.11836626 -1.12163721 8.11836626 -1.12304783 6.60053635 C-1 4 -1 4 0 0 Z " fill="#FBC12E" transform="translate(291,211)"/>
<path d="M0 0 C8.62497813 -0.0330824 17.24996644 -0.0517455 25.875 -0.0625 C26.55628338 -0.06335602 27.23756676 -0.06421204 27.93949509 -0.06509399 C59.31552024 -0.09959558 90.68826644 0.19033079 122.0625 0.5 C123.27438744 0.51195782 124.48627487 0.52391563 125.73488617 0.53623581 C140.82331225 0.68559737 155.91167994 0.84029924 171 1 C171.17706527 11.22900651 171.34277214 21.45817138 171.5 31.6875 C171.51187725 32.4598423 171.5237545 33.2321846 171.53599167 34.02793121 C171.92150459 59.31104756 172.09099527 84.58900908 172.0625 109.875 C172.06164398 110.64016811 172.06078796 111.40533623 172.05990601 112.19369125 C172.0487456 121.46248757 172.02840339 130.73123953 172 140 C156.79180752 140.1329216 141.58359501 140.26336222 126.37535858 140.39115143 C119.3076836 140.4505913 112.24001621 140.51074248 105.17236328 140.57275391 C78.18591706 140.80909316 51.19907495 141.04482873 24.21150208 141.08811951 C22.10618244 141.09184688 20.00086496 141.09716454 17.89555359 141.10414124 C15.04037354 141.1128888 12.18526974 141.11515335 9.33007812 141.11523438 C8.49028915 141.11880447 7.65050018 141.12237457 6.78526306 141.12605286 C1.11467501 141.11467501 1.11467501 141.11467501 0 140 C-1.61331294 125.99803712 -1.31406638 111.77170784 -0.49829102 97.72949219 C0.06865849 87.15323718 0.12865726 76.60447983 0.09765625 66.015625 C0.09578412 64.09364866 0.09436399 62.17167182 0.09336853 60.24969482 C0.08960579 55.26538707 0.07983131 50.28110989 0.06866455 45.29681396 C0.05831374 40.1809531 0.05384206 35.06508714 0.04882812 29.94921875 C0.03820138 19.96613263 0.02120313 9.98306888 0 0 Z " fill="#5386C5" transform="translate(98,210)"/>
<path d="M0 0 C2.00496099 0.00848537 4.00992548 0.01618126 6.01489258 0.02307129 C10.87199586 0.04145165 15.72892678 0.07045921 20.5859375 0.10546875 C20.71850925 13.90449319 20.84900971 27.70353567 20.97708893 41.50260258 C21.03666507 47.91474915 21.09687252 54.3268883 21.15869141 60.73901367 C21.63093492 109.82649502 21.63093492 109.82649502 21.67405701 131.3283062 C21.67775801 132.98687619 21.68305125 134.64544353 21.69007874 136.30400276 C21.69888485 138.54441114 21.70109107 140.78472307 21.70117188 143.02514648 C21.70322632 144.25885483 21.70528076 145.49256317 21.70739746 146.76365662 C21.5859375 150.10546875 21.5859375 150.10546875 20.5859375 156.10546875 C-36.5040625 156.10546875 -93.5940625 156.10546875 -152.4140625 156.10546875 C-152.4140625 75.31946481 -152.4140625 75.31946481 -140.4765625 61.85546875 C-139.92371582 61.22560059 -139.37086914 60.59573242 -138.80126953 59.94677734 C-126.03638516 45.66506153 -111.43111761 33.15839317 -95.10888672 23.14892578 C-93.53541382 22.18018145 -91.97603066 21.18865314 -90.41796875 20.1953125 C-82.46083783 15.28283683 -74.23403534 12.07114557 -65.4140625 9.10546875 C-64.76904785 8.88117187 -64.1240332 8.656875 -63.45947266 8.42578125 C-42.65349226 1.27487568 -21.81777893 -0.16208554 0 0 Z " fill="#FAC02F" transform="translate(443.4140625,32.89453125)"/>
<path d="M0 0 C1.14241402 0.00068733 1.14241402 0.00068733 2.3079071 0.00138855 C3.92607168 0.00441142 5.54423332 0.01229879 7.16235352 0.0246582 C9.58946565 0.04261907 12.0161885 0.04516967 14.44335938 0.04492188 C27.07583565 0.07238695 39.66437538 0.33459415 52.07421875 2.91796875 C52.91927979 3.09312012 53.76434082 3.26827148 54.63500977 3.44873047 C81.98054439 9.3768727 106.13580333 22.1277449 127.32421875 40.23046875 C128.48051724 41.17991419 129.63814193 42.12774609 130.796875 43.07421875 C137.15850916 48.31994151 143.04432388 53.55489786 148.01225281 60.19636536 C149.5744871 62.24656008 151.20411487 64.24684556 152.89118958 66.19560242 C160.86942196 75.73926811 161.70585037 83.48229026 161.3359375 95.625 C161.31977942 97.35133968 161.30796249 99.07772487 161.30024719 100.80412292 C161.26806991 105.30136004 161.17502777 109.79529879 161.06915283 114.2913208 C160.97308961 118.89367815 160.94090976 123.49649256 160.90039062 128.09960938 C160.82929557 134.79330025 160.74333832 141.48645883 160.59643555 148.17895508 C160.57826279 149.23460663 160.57826279 149.23460663 160.5597229 150.31158447 C160.44048545 155.11420205 160.44048545 155.11420205 159.32421875 156.23046875 C157.14729264 156.32743792 154.96715482 156.35233621 152.78807068 156.35072327 C152.0970959 156.35157769 151.40612113 156.35243212 150.69420773 156.35331243 C148.36178655 156.35496922 146.02943612 156.34944265 143.69702148 156.34399414 C142.03187054 156.34371229 140.36671947 156.34386997 138.7015686 156.34443665 C134.16663769 156.34472469 129.63173299 156.33882691 125.0968082 156.33186269 C120.36288506 156.32563023 115.62896139 156.32502544 110.89503479 156.32383728 C101.92419775 156.32072364 92.95337283 156.31250983 83.98254114 156.30248779 C73.77231483 156.29132765 63.56208795 156.28581645 53.35185707 156.28079236 C32.34263752 156.27032724 11.3334289 156.25272718 -9.67578125 156.23046875 C-10.88037108 75.61597601 -10.88037108 75.61597601 -10.91601562 43.87451172 C-10.92062284 40.40306299 -10.93539736 36.93183321 -10.95703125 33.46044922 C-10.98436999 29.07212077 -10.99740294 24.68398534 -10.9993515 20.29557419 C-11.00235179 18.67279744 -11.01028999 17.05002114 -11.02353668 15.42729568 C-11.04040208 13.2320408 -11.03878382 11.03757651 -11.03222656 8.84228516 C-11.03587219 7.60717194 -11.03951782 6.37205872 -11.04327393 5.09951782 C-10.92200134 4.15273163 -10.80072876 3.20594543 -10.67578125 2.23046875 C-7.00059941 -0.21965247 -4.24709663 -0.04191668 0 0 Z " fill="#E44640" transform="translate(108.67578125,32.76953125)"/>
<path d="M0 0 C0 61.05 0 122.1 0 185 C-23.1 185 -46.2 185 -70 185 C-70 124.61 -70 64.22 -70 2 C-18 0 -18 0 0 0 Z " fill="#EE4847" transform="translate(557,6)"/>
<path d="M0 0 C23.76 0 47.52 0 72 0 C72.02758614 12.10418548 72.05106508 24.20829865 72.0625 36.3125 C72.06335602 37.21217499 72.06421204 38.11184998 72.06509399 39.03878784 C72.0930902 72.37480712 71.68023354 105.66855662 71 139 C47.57 139 24.14 139 0 139 C0 93.13 0 47.26 0 0 Z " fill="#5386C5" transform="translate(5,211)"/>
<path d="M0 0 C23.43 0 46.86 0 71 0 C71 46.2 71 92.4 71 140 C47.57 140 24.14 140 0 140 C-0.165 131.29625 -0.33 122.5925 -0.5 113.625 C-0.55220703 110.93811035 -0.60441406 108.2512207 -0.65820312 105.48291016 C-0.88214053 93.56414228 -1.04837897 81.64759859 -1.0625 69.7265625 C-1.06479614 68.67852448 -1.06709229 67.63048645 -1.06945801 66.5506897 C-1.06340702 60.59959886 -0.88877333 54.68818243 -0.5 48.75 C0.49447126 32.5396515 0.0571267 16.22398291 0 0 Z " fill="#F16137" transform="translate(486,211)"/>
<path d="M0 0 C35.31 0.33 70.62 0.66 107 1 C107.75531179 47.35726133 108.09618902 93.63689016 108 140 C85.56 140 63.12 140 40 140 C40 133.30678244 40.63501211 131.16162936 44 126 C44.85363319 124.55951481 45.70103835 123.1153251 46.54296875 121.66796875 C47.87852035 119.40368291 49.21544166 117.14021105 50.55273438 114.87695312 C50.98263672 114.14798828 51.41253906 113.41902344 51.85546875 112.66796875 C52.24371826 112.01078857 52.63196777 111.3536084 53.03198242 110.67651367 C54.69728207 107.79237429 55.23134953 105.68650471 55.5625 102.375 C55.64628906 101.55773437 55.73007813 100.74046875 55.81640625 99.8984375 C55.90728516 98.95871094 55.90728516 98.95871094 56 98 C53.02934491 98.34227572 53.02934491 98.34227572 50 99 C49.67 99.66 49.34 100.32 49 101 C49 92.42 49 83.84 49 75 C49.99 75 50.98 75 52 75 C52 75.66 52 76.32 52 77 C53.65 77 55.3 77 57 77 C53.85056823 70.40764718 50.37632685 64.23246237 46.375 58.125 C41.47235295 50.5425647 37.02351838 42.80536856 32.91748047 34.76220703 C28.20411531 25.81620681 21.36165043 20.24704317 13.375 14.25 C12.63765625 13.68667969 11.9003125 13.12335938 11.140625 12.54296875 C8.13797486 10.26676622 5.32464287 8.16945184 1.9765625 6.421875 C1.32429687 5.95265625 0.67203125 5.4834375 0 5 C0 3.35 0 1.7 0 0 Z " fill="#285BA3" transform="translate(162,210)"/>
<path d="M0 0 C23.76 0 47.52 0 72 0 C72 15.51 72 31.02 72 47 C78.6 47 85.2 47 92 47 C92 47.33 92 47.66 92 48 C80.15234827 48.02312202 68.30470186 48.04091437 56.4570322 48.05181217 C50.95629138 48.05704131 45.45556595 48.06413951 39.95483398 48.07543945 C34.6510344 48.08626725 29.34724965 48.0922766 24.04343987 48.09487724 C22.01514388 48.09673169 19.98684874 48.10035267 17.95855904 48.10573006 C15.12803486 48.11293906 12.29757282 48.113991 9.46704102 48.11352539 C8.19605812 48.1189183 8.19605812 48.1189183 6.8993988 48.12442017 C1.11405216 48.11405216 1.11405216 48.11405216 0 47 C-0.09304018 45.52645652 -0.11746265 44.04849409 -0.11352539 42.57202148 C-0.11340454 41.61791382 -0.11328369 40.66380615 -0.11315918 39.68078613 C-0.10804321 38.67108765 -0.10292725 37.66138916 -0.09765625 36.62109375 C-0.09664917 35.69816528 -0.09564209 34.77523682 -0.09460449 33.82434082 C-0.08935494 30.36204799 -0.07539381 26.8997728 -0.0625 23.4375 C-0.041875 15.703125 -0.02125 7.96875 0 0 Z " fill="#393A5A" transform="translate(5,373)"/>
<path d="M0 0 C1.32572021 0.00966797 1.32572021 0.00966797 2.67822266 0.01953125 C18.30753143 0.1850576 33.94112197 0.73140137 49.5625 1.1875 C49.8925 15.0475 50.2225 28.9075 50.5625 43.1875 C26.52772161 44.20484512 2.62376318 44.26388496 -21.4375 44.1875 C-21.4375 30.3275 -21.4375 16.4675 -21.4375 2.1875 C-13.87818625 0.92761438 -7.46524644 -0.1197073 0 0 Z " fill="#2E6DA9" transform="translate(26.4375,145.8125)"/>
<path d="M0 0 C57.09 0 114.18 0 173 0 C173 7.59 173 15.18 173 23 C172.67 23 172.34 23 172 23 C172 15.74 172 8.48 172 1 C115.9 1 59.8 1 2 1 C1.35430285 5.51988007 0.87539852 9.28348799 0.87974548 13.73912048 C0.87836799 14.83191535 0.87699049 15.92471022 0.87557125 17.05062008 C0.87916936 18.23395207 0.88276747 19.41728407 0.88647461 20.63647461 C0.88635407 21.9159903 0.88623354 23.195506 0.88610935 24.5137949 C0.88588461 27.95891045 0.89165899 31.4039909 0.89871979 34.84909821 C0.90443627 38.08791505 0.90468408 41.32673047 0.90539551 44.56555176 C0.9106322 54.02287244 0.92459344 63.48018667 0.9375 72.9375 C0.958125 94.078125 0.97875 115.21875 1 137 C66.835 137.495 66.835 137.495 134 138 C134 138.33 134 138.66 134 139 C89.45 139 44.9 139 -1 139 C-1.0309375 105.71125 -1.0309375 105.71125 -1.0625 71.75 C-1.071604 64.7384668 -1.08070801 57.72693359 -1.09008789 50.50292969 C-1.09460449 41.95166016 -1.09460449 41.95166016 -1.09544373 37.95050049 C-1.09637668 35.15150157 -1.10012941 32.35252155 -1.10557556 29.55352783 C-1.11242831 25.98441947 -1.11449231 22.41533864 -1.11307228 18.84622431 C-1.11350951 16.91673961 -1.11887627 14.98725797 -1.12442875 13.05778122 C-1.12305125 11.91873966 -1.12167376 10.7796981 -1.12025452 9.60614014 C-1.12163721 8.11836626 -1.12163721 8.11836626 -1.12304783 6.60053635 C-1 4 -1 4 0 0 Z " fill="#D5B248" transform="translate(291,211)"/>
<path d="M0 0 C0.33 0 0.66 0 1 0 C1.02333003 14.58571195 1.04091327 29.17142103 1.05181217 43.75714779 C1.05697491 50.52910421 1.06401718 57.30104905 1.07543945 64.07299805 C1.08644714 70.60224426 1.09227625 77.13148294 1.09487724 83.66073799 C1.09673199 86.15793612 1.10035354 88.65513355 1.10573006 91.15232658 C1.11293684 94.63664069 1.1139911 98.12090431 1.11352539 101.60522461 C1.11712067 102.64891205 1.12071594 103.69259949 1.12442017 104.76791382 C1.1230455 105.71167374 1.12167084 106.65543365 1.12025452 107.62779236 C1.12117631 108.45279708 1.1220981 109.2778018 1.12304783 110.12780666 C1 112 1 112 0 113 C-2.73894085 113.08858646 -5.4525327 113.11523479 -8.19140625 113.09765625 C-9.01124496 113.0962413 -9.83108368 113.09482635 -10.67576599 113.09336853 C-13.30471382 113.08775289 -15.93357773 113.07519779 -18.5625 113.0625 C-20.34049357 113.05748701 -22.11848846 113.05292376 -23.89648438 113.04882812 C-28.26435545 113.03777839 -32.63216348 113.02050331 -37 113 C-35 111 -35 111 -31.65185547 110.77294922 C-30.22359367 110.77326625 -28.79530788 110.78458639 -27.3671875 110.8046875 C-26.23943405 110.80893234 -26.23943405 110.80893234 -25.08889771 110.81326294 C-22.68410422 110.82447126 -20.27968119 110.84957648 -17.875 110.875 C-16.24609912 110.88502898 -14.61719242 110.89415497 -12.98828125 110.90234375 C-8.99204444 110.92441265 -4.99608506 110.95894649 -1 111 C-1.00222061 110.05184418 -1.00444122 109.10368835 -1.00672913 108.12680054 C-1.02730227 99.04157131 -1.04213242 89.956347 -1.05181217 80.87109947 C-1.05695639 76.20409525 -1.0638929 71.53711031 -1.07543945 66.87011719 C-1.12922647 44.55638924 -0.97265899 22.29548187 0 0 Z " fill="#CCA93B" transform="translate(464,236)"/>
<path d="M0 0 C1.8871875 0.061875 1.8871875 0.061875 3.8125 0.125 C3.8125 0.455 3.8125 0.785 3.8125 1.125 C3.24660156 1.24617188 2.68070313 1.36734375 2.09765625 1.4921875 C0.99744141 1.74355469 0.99744141 1.74355469 -0.125 2 C-0.85589844 2.16242187 -1.58679688 2.32484375 -2.33984375 2.4921875 C-4.39450294 2.95461523 -4.39450294 2.95461523 -5.1875 5.125 C-5.30965485 7.6262233 -5.37313281 10.10147987 -5.39282227 12.60400391 C-5.40272186 13.37482803 -5.41262146 14.14565216 -5.42282104 14.93983459 C-5.4544683 17.4937124 -5.47920617 20.04760882 -5.50390625 22.6015625 C-5.524473 24.36990855 -5.54546939 26.13824965 -5.56687927 27.90658569 C-5.62212881 32.56559243 -5.67152536 37.22464375 -5.71972656 41.88372803 C-5.76992056 46.63606747 -5.82561758 51.38834202 -5.88085938 56.140625 C-5.98847619 65.46869459 -6.08991333 74.79682047 -6.1875 84.125 C-6.5175 84.125 -6.8475 84.125 -7.1875 84.125 C-7.2569077 73.46811115 -7.31026419 62.81127578 -7.34293652 52.15420723 C-7.35861495 47.20607667 -7.37989277 42.25810036 -7.41381836 37.31005859 C-7.4463344 32.53791659 -7.4643366 27.76592325 -7.47213173 22.99367905 C-7.47768923 21.16993747 -7.48854119 19.34620433 -7.50469017 17.52252579 C-7.52636167 14.9746343 -7.52947129 12.42736285 -7.52807617 9.87939453 C-7.54425491 8.74003952 -7.54425491 8.74003952 -7.5607605 7.57766724 C-7.54826355 5.47854614 -7.54826355 5.47854614 -7.1875 2.125 C-4.09861478 0.06574319 -3.47814073 -0.1140374 0 0 Z " fill="#8B3E41" transform="translate(105.1875,32.875)"/>
<path d="M0 0 C0 2.66666667 0 5.33333333 0 8 C-2.475 7.505 -2.475 7.505 -5 7 C-5.268125 7.598125 -5.53625 8.19625 -5.8125 8.8125 C-6.98794363 10.97779089 -8.27644111 12.27644111 -10 14 C-10 14.66 -10 15.32 -10 16 C-15.2734375 19.22265625 -15.2734375 19.22265625 -17 20 C-17.66 19.67 -18.32 19.34 -19 19 C-12.98348207 12.26459665 -7.02537494 5.71692402 0 0 Z " fill="#E8BD44" transform="translate(322,76)"/>
<path d="M0 0 C0 0.99 0 1.98 0 3 C-1.86328125 4.640625 -1.86328125 4.640625 -4.3125 6.25 C-5.11300781 6.79140625 -5.91351563 7.3328125 -6.73828125 7.890625 C-9 9 -9 9 -12 8 C-8.04 5.36 -4.08 2.72 0 0 Z " fill="#1A2533" transform="translate(328,37)"/>
<path d="M0 0 C-0.66 0 -1.32 0 -2 0 C-2.33 0.99 -2.66 1.98 -3 3 C-6.96 3 -10.92 3 -15 3 C-5 -2 -5 -2 0 0 Z " fill="#CEAB44" transform="translate(399,38)"/>
<path d="M0 0 C0.99 0.33 1.98 0.66 3 1 C5.14255793 0.61067144 5.14255793 0.61067144 7 0 C6.67 2.31 6.34 4.62 6 7 C5.34 7 4.68 7 4 7 C2.02 3.535 2.02 3.535 0 0 Z " fill="#151423" transform="translate(264,103)"/>
<path d="M0 0 C2 2 2 2 2 5 C2.66 5 3.32 5 4 5 C3.67 5.66 3.34 6.32 3 7 C1.66402348 6.19185349 0.331275 5.37836819 -1 4.5625 C-1.7425 4.11003906 -2.485 3.65757813 -3.25 3.19140625 C-3.8275 2.79824219 -4.405 2.40507813 -5 2 C-5 1.67 -5 1.34 -5 1 C-2.625 0.375 -2.625 0.375 0 0 Z " fill="#161320" transform="translate(218,55)"/>
<path d="M0 0 C1.65 0.99 3.3 1.98 5 3 C4.34 4.32 3.68 5.64 3 7 C2.34 7 1.68 7 1 7 C0.67 4.69 0.34 2.38 0 0 Z " fill="#D84F49" transform="translate(230,69)"/>
<path d="M0 0 C0.66 0.33 1.32 0.66 2 1 C-1.96 4.465 -1.96 4.465 -6 8 C-6.66 7.67 -7.32 7.34 -8 7 C-5.36 4.69 -2.72 2.38 0 0 Z " fill="#192433" transform="translate(313,48)"/>
<path d="M0 0 C2.91517292 1.07401108 4.77810176 1.77810176 7 4 C4.36 4 1.72 4 -1 4 C-0.67 2.68 -0.34 1.36 0 0 Z " fill="#152234" transform="translate(215,28)"/>
<path d="M0 0 C3.36591866 1.44253657 5.51047079 3.33264727 8 6 C7.67 6.66 7.34 7.32 7 8 C5.2925002 6.71937515 3.62626404 5.38232443 2 4 C2 3.34 2 2.68 2 2 C1.34 2 0.68 2 0 2 C0 1.34 0 0.68 0 0 Z " fill="#B54C4D" transform="translate(245,82)"/>
<path d="M0 0 C0.66 0.33 1.32 0.66 2 1 C-0.12055614 4.1808342 -1.63050557 5.31525278 -5 7 C-5.66 6.67 -6.32 6.34 -7 6 C-4.69 4.02 -2.38 2.04 0 0 Z " fill="#DCBA4F" transform="translate(332,67)"/>
</svg>
