<?xml version="1.0" encoding="UTF-8"?>
<svg version="1.1" xmlns="http://www.w3.org/2000/svg" width="1024" height="768">
<path d="M0 0 C337.92 0 675.84 0 1024 0 C1024 253.44 1024 506.88 1024 768 C686.08 768 348.16 768 0 768 C0 514.56 0 261.12 0 0 Z " fill="#FCFDFC" transform="translate(0,0)"/>
<path d="M0 0 C0 121.11 0 242.22 0 367 C-49.85474101 368.15941258 -49.85474101 368.15941258 -73.13814735 368.13266373 C-77.81158076 368.12851746 -82.48499876 368.13149217 -87.15843201 368.13470459 C-94.82789197 368.13907448 -102.49734196 368.13822457 -110.16680226 368.13529195 C-116.44084047 368.1329966 -122.71487597 368.13274285 -128.98891449 368.13381577 C-129.89557605 368.133969 -130.80223761 368.13412223 -131.73637377 368.13428011 C-133.58096403 368.13459998 -135.42555429 368.1349242 -137.27014455 368.1352527 C-154.44803194 368.13808341 -171.62591393 368.13486176 -188.80380043 368.12945233 C-203.34267307 368.12501406 -217.88153768 368.12574021 -232.42041016 368.13037109 C-249.49751724 368.13580829 -266.5746196 368.13778067 -283.65172744 368.13475883 C-285.49905761 368.13444047 -287.34638778 368.13412609 -289.19371796 368.13381577 C-290.10142239 368.13366149 -291.00912682 368.13350721 -291.94433744 368.13334826 C-298.14642811 368.13250792 -304.34851559 368.13390915 -310.55060577 368.13629532 C-360.04098834 368.15373581 -409.51517315 367.74528889 -459 367 C-458.99022419 370.7519177 -458.98035708 374.50383515 -458.97047424 378.25575256 C-458.96772444 379.31154086 -458.96497464 380.36732915 -458.96214151 381.45511103 C-458.94770572 386.91857613 -458.93089304 392.38201548 -458.90991211 397.84545898 C-458.90699309 399.77067001 -458.9044445 401.69588165 -458.90234375 403.62109375 C-458.89722778 404.63079224 -458.89211182 405.64049072 -458.88684082 406.68078613 C-458.88665955 408.11194763 -458.88665955 408.11194763 -458.88647461 409.57202148 C-458.884254 410.40475082 -458.88203339 411.23748016 -458.87974548 412.09544373 C-459 414 -459 414 -460 415 C-462.8250333 415.10053508 -465.62565285 415.13615716 -468.45117188 415.12939453 C-469.33728653 415.13114685 -470.22340118 415.13289917 -471.1363678 415.13470459 C-474.08051482 415.1391244 -477.02460231 415.13618467 -479.96875 415.1328125 C-482.00516776 415.1334855 -484.04158544 415.1344555 -486.07800293 415.13571167 C-490.35197716 415.13718882 -494.62593053 415.13503355 -498.89990234 415.13037109 C-504.39158539 415.1246738 -509.88321957 415.12795271 -515.37490082 415.13394356 C-519.58177054 415.13754872 -523.78862859 415.13641079 -527.99549866 415.13381577 C-530.02100124 415.13314637 -532.04650486 415.13397535 -534.07200623 415.13629532 C-536.8976423 415.1388211 -539.72319807 415.1349823 -542.54882812 415.12939453 C-543.81745445 415.13243088 -543.81745445 415.13243088 -545.11170959 415.13552856 C-550.88573759 415.11426241 -550.88573759 415.11426241 -552 414 C-552.09668251 412.54564199 -552.12371797 411.0865953 -552.12304783 409.62902737 C-552.12503888 408.67955272 -552.12702993 407.73007808 -552.12908131 406.75183147 C-552.12616847 405.69640638 -552.12325563 404.64098128 -552.12025452 403.55357361 C-552.12110894 402.44199294 -552.12196337 401.33041227 -552.12284368 400.18514735 C-552.12450174 396.4293238 -552.1189718 392.6735441 -552.11352539 388.91772461 C-552.11324356 386.2378072 -552.11335705 383.55789254 -552.1139679 380.87797546 C-552.11449332 375.09230526 -552.11134456 369.3066463 -552.10573006 363.52097893 C-552.0976176 355.15578183 -552.0950001 346.7905902 -552.09374207 338.4253896 C-552.09155114 324.85479766 -552.08488997 311.28421172 -552.07543945 297.71362305 C-552.06626637 284.52775096 -552.05918503 271.34188049 -552.05493164 258.15600586 C-552.05466892 257.34380579 -552.05440619 256.53160571 -552.05413551 255.69479351 C-552.05283051 251.62039678 -552.05156679 247.54600003 -552.05032361 243.47160327 C-552.03994974 209.64773117 -552.02233034 175.82386632 -552 142 C-550.09816358 141.66807711 -548.19559204 141.34036461 -546.29272461 141.0144043 C-545.23331161 140.83145309 -544.17389862 140.64850189 -543.0823822 140.46000671 C-523.20467724 137.49350965 -500.20875059 140.48084458 -481 141 C-481 94.8 -481 48.6 -481 1 C-469.3675 0.9175 -457.735 0.835 -445.75 0.75 C-442.1209668 0.71358398 -438.49193359 0.67716797 -434.75292969 0.63964844 C-418.73751296 0.54499615 -403.54487707 0.65001161 -388 5 C-386.79972168 5.2985791 -385.59944336 5.5971582 -384.36279297 5.90478516 C-381.24351045 6.69341667 -378.1535178 7.54518153 -375.0625 8.4375 C-374.00111816 8.74115479 -372.93973633 9.04480957 -371.84619141 9.35766602 C-359.4140508 12.97041666 -348.15680026 17.65025338 -336.86425781 23.96044922 C-335.05941692 24.96686783 -333.24564027 25.95521655 -331.4296875 26.94140625 C-314.41833608 36.36044311 -299.45395773 47.98658229 -287 63 C-285.73192266 64.43993176 -284.46108531 65.87743761 -283.1875 67.3125 C-281.24849682 69.49997956 -279.63058448 71.55412328 -278 74 C-273.74655967 72.43974268 -271.4964158 69.22464328 -268.75 65.8125 C-252.39099062 46.15754071 -232.57829125 32.23872164 -210.25 20.1875 C-209.5897583 19.8265625 -208.9295166 19.465625 -208.24926758 19.09375 C-199.16287402 14.28047765 -189.49630713 11.43537223 -179.5625 8.9375 C-178.55550049 8.68000977 -177.54850098 8.42251953 -176.51098633 8.15722656 C-174.54279566 7.65487236 -172.57399036 7.15491822 -170.60449219 6.65771484 C-168.46653378 6.11781421 -166.3306254 5.56980182 -164.1953125 5.01953125 C-161.4669209 4.3214882 -158.74499289 3.62962075 -156 3 C-154.9539475 2.75614484 -154.9539475 2.75614484 -153.88676262 2.50736332 C-147.88471573 1.19567084 -142.26105614 0.72599396 -136.12939453 0.78881836 C-135.19755341 0.7901326 -134.26571228 0.79144684 -133.30563354 0.7928009 C-130.24791998 0.79924833 -127.19046362 0.81968833 -124.1328125 0.83984375 C-121.97216056 0.84613167 -119.81150532 0.85136589 -117.65084839 0.85560608 C-111.96358923 0.86887358 -106.27643859 0.89324873 -100.5892334 0.92095947 C-90.47880161 0.96923332 -80.36832633 1.00228588 -70.2578125 1.02734375 C-69.17684547 1.0303587 -68.09587845 1.03337364 -66.98215485 1.03647995 C-52.66074149 1.07097089 -38.39192668 0.91368567 -24.08544922 0.22094727 C-16.06191504 -0.07036696 -8.02882087 0 0 0 Z " fill="#09192B" transform="translate(786,97)"/>
<path d="M0 0 C57.09 0 114.18 0 173 0 C174.14924323 28.73108064 174.14924323 28.73108064 174.12939453 38.10351562 C174.13202301 39.74518204 174.13202301 39.74518204 174.13470459 41.42001343 C174.13898636 44.9154434 174.13624022 48.41081984 174.1328125 51.90625 C174.13348832 54.37919118 174.13446065 56.85213229 174.13571167 59.32507324 C174.13716895 64.44426115 174.13509404 69.56343136 174.13037109 74.68261719 C174.12460182 81.2564963 174.12800991 87.83033522 174.13394356 94.40421295 C174.1375412 99.48087879 174.13641554 104.55753493 174.13381577 109.63420105 C174.13314801 112.06162013 174.13396966 114.48904008 174.13629532 116.91645813 C174.13881645 120.27831407 174.13499231 123.64010228 174.12939453 127.00195312 C174.13141876 128.00636444 174.13344299 129.01077576 174.13552856 130.04562378 C174.13270874 130.9532547 174.12988892 131.86088562 174.12698364 132.79602051 C174.1264181 133.98482189 174.1264181 133.98482189 174.12584114 135.19763947 C174 137 174 137 173 138 C170.94702266 138.16235506 168.88825521 138.25114417 166.82983398 138.31420898 C166.15800898 138.33486734 165.48618397 138.3555257 164.79400063 138.37681007 C162.46566827 138.44454811 160.1372343 138.50247559 157.80859375 138.55859375 C156.97877928 138.57965117 156.14896481 138.60070858 155.29400444 138.6224041 C127.22606107 139.31063013 99.1386846 139.11339928 71.06437528 139.07202756 C63.18461947 139.06062083 55.30486253 139.05529445 47.42510045 139.05032361 C31.28339062 139.04001245 15.14169749 139.0225511 -1 139 C-1.02335259 121.46727101 -1.04099079 103.93454686 -1.05181217 86.40180588 C-1.0569701 78.26119212 -1.06400326 70.12058803 -1.07543945 61.97998047 C-1.08540162 54.88525456 -1.09185709 47.79053564 -1.09408849 40.69580293 C-1.09539299 36.93864975 -1.09846239 33.18151658 -1.10573006 29.42436981 C-1.11377433 25.23179738 -1.11399014 21.03925981 -1.11352539 16.84667969 C-1.11712067 15.59871109 -1.12071594 14.35074249 -1.12442017 13.06495667 C-1.12235817 11.35284248 -1.12235817 11.35284248 -1.12025452 9.60614014 C-1.12163721 8.11836626 -1.12163721 8.11836626 -1.12304783 6.60053635 C-1 4 -1 4 0 0 Z " fill="#FBC12E" transform="translate(520,302)"/>
<path d="M0 0 C8.62497813 -0.0330824 17.24996644 -0.0517455 25.875 -0.0625 C26.55628338 -0.06335602 27.23756676 -0.06421204 27.93949509 -0.06509399 C59.31552024 -0.09959558 90.68826644 0.19033079 122.0625 0.5 C123.27438744 0.51195782 124.48627487 0.52391563 125.73488617 0.53623581 C140.82331225 0.68559737 155.91167994 0.84029924 171 1 C171.17706527 11.22900651 171.34277214 21.45817138 171.5 31.6875 C171.51187725 32.4598423 171.5237545 33.2321846 171.53599167 34.02793121 C171.92150459 59.31104756 172.09099527 84.58900908 172.0625 109.875 C172.06164398 110.64016811 172.06078796 111.40533623 172.05990601 112.19369125 C172.0487456 121.46248757 172.02840339 130.73123953 172 140 C156.79180752 140.1329216 141.58359501 140.26336222 126.37535858 140.39115143 C119.3076836 140.4505913 112.24001621 140.51074248 105.17236328 140.57275391 C78.18591706 140.80909316 51.19907495 141.04482873 24.21150208 141.08811951 C22.10618244 141.09184688 20.00086496 141.09716454 17.89555359 141.10414124 C15.04037354 141.1128888 12.18526974 141.11515335 9.33007812 141.11523438 C8.49028915 141.11880447 7.65050018 141.12237457 6.78526306 141.12605286 C1.11467501 141.11467501 1.11467501 141.11467501 0 140 C-1.61331294 125.99803712 -1.31406638 111.77170784 -0.49829102 97.72949219 C0.06865849 87.15323718 0.12865726 76.60447983 0.09765625 66.015625 C0.09578412 64.09364866 0.09436399 62.17167182 0.09336853 60.24969482 C0.08960579 55.26538707 0.07983131 50.28110989 0.06866455 45.29681396 C0.05831374 40.1809531 0.05384206 35.06508714 0.04882812 29.94921875 C0.03820138 19.96613263 0.02120313 9.98306888 0 0 Z " fill="#5386C5" transform="translate(327,301)"/>
<path d="M0 0 C2.00496099 0.00848537 4.00992548 0.01618126 6.01489258 0.02307129 C10.87199586 0.04145165 15.72892678 0.07045921 20.5859375 0.10546875 C20.71850925 13.90449319 20.84900971 27.70353567 20.97708893 41.50260258 C21.03666507 47.91474915 21.09687252 54.3268883 21.15869141 60.73901367 C21.63093492 109.82649502 21.63093492 109.82649502 21.67405701 131.3283062 C21.67775801 132.98687619 21.68305125 134.64544353 21.69007874 136.30400276 C21.69888485 138.54441114 21.70109107 140.78472307 21.70117188 143.02514648 C21.70322632 144.25885483 21.70528076 145.49256317 21.70739746 146.76365662 C21.5859375 150.10546875 21.5859375 150.10546875 20.5859375 156.10546875 C-36.5040625 156.10546875 -93.5940625 156.10546875 -152.4140625 156.10546875 C-152.4140625 75.31946481 -152.4140625 75.31946481 -140.4765625 61.85546875 C-139.92371582 61.22560059 -139.37086914 60.59573242 -138.80126953 59.94677734 C-126.03638516 45.66506153 -111.43111761 33.15839317 -95.10888672 23.14892578 C-93.53541382 22.18018145 -91.97603066 21.18865314 -90.41796875 20.1953125 C-82.46083783 15.28283683 -74.23403534 12.07114557 -65.4140625 9.10546875 C-64.76904785 8.88117188 -64.1240332 8.656875 -63.45947266 8.42578125 C-42.65349226 1.27487568 -21.81777893 -0.16208554 0 0 Z " fill="#FAC02F" transform="translate(672.4140625,123.89453125)"/>
<path d="M0 0 C1.14241402 0.00068733 1.14241402 0.00068733 2.3079071 0.00138855 C3.92607168 0.00441142 5.54423332 0.01229879 7.16235352 0.0246582 C9.58946565 0.04261907 12.0161885 0.04516967 14.44335938 0.04492188 C27.07583565 0.07238695 39.66437538 0.33459415 52.07421875 2.91796875 C52.91927979 3.09312012 53.76434082 3.26827148 54.63500977 3.44873047 C81.98054439 9.3768727 106.13580333 22.1277449 127.32421875 40.23046875 C128.48051724 41.17991419 129.63814193 42.12774609 130.796875 43.07421875 C137.15850916 48.31994151 143.04432388 53.55489786 148.01225281 60.19636536 C149.5744871 62.24656008 151.20411487 64.24684556 152.89118958 66.19560242 C160.86942196 75.73926811 161.70585037 83.48229026 161.3359375 95.625 C161.31977942 97.35133968 161.30796249 99.07772487 161.30024719 100.80412292 C161.26806991 105.30136004 161.17502777 109.79529879 161.06915283 114.2913208 C160.97308961 118.89367815 160.94090976 123.49649256 160.90039062 128.09960938 C160.82929557 134.79330025 160.74333832 141.48645883 160.59643555 148.17895508 C160.57826279 149.23460663 160.57826279 149.23460663 160.5597229 150.31158447 C160.44048545 155.11420205 160.44048545 155.11420205 159.32421875 156.23046875 C157.14729264 156.32743792 154.96715482 156.35233621 152.78807068 156.35072327 C152.0970959 156.35157769 151.40612113 156.35243212 150.69420773 156.35331243 C148.36178655 156.35496922 146.02943612 156.34944265 143.69702148 156.34399414 C142.03187054 156.34371229 140.36671947 156.34386997 138.7015686 156.34443665 C134.16663769 156.34472469 129.63173299 156.33882691 125.0968082 156.33186269 C120.36288506 156.32563023 115.62896139 156.32502544 110.89503479 156.32383728 C101.92419775 156.32072364 92.95337283 156.31250983 83.98254114 156.30248779 C73.77231483 156.29132765 63.56208795 156.28581645 53.35185707 156.28079236 C32.34263752 156.27032724 11.3334289 156.25272718 -9.67578125 156.23046875 C-10.88037108 75.61597601 -10.88037108 75.61597601 -10.91601562 43.87451172 C-10.92062284 40.40306299 -10.93539736 36.93183321 -10.95703125 33.46044922 C-10.98436999 29.07212077 -10.99740294 24.68398534 -10.9993515 20.29557419 C-11.00235179 18.67279744 -11.01028999 17.05002114 -11.02353668 15.42729568 C-11.04040208 13.2320408 -11.03878382 11.03757651 -11.03222656 8.84228516 C-11.03587219 7.60717194 -11.03951782 6.37205872 -11.04327393 5.09951782 C-10.92200134 4.15273163 -10.80072876 3.20594543 -10.67578125 2.23046875 C-7.00059941 -0.21965247 -4.24709663 -0.04191668 0 0 Z " fill="#E44640" transform="translate(337.67578125,123.76953125)"/>
<path d="M0 0 C0 61.05 0 122.1 0 185 C-23.1 185 -46.2 185 -70 185 C-70 124.61 -70 64.22 -70 2 C-18 0 -18 0 0 0 Z " fill="#EE4847" transform="translate(786,97)"/>
<path d="M0 0 C23.76 0 47.52 0 72 0 C72.02758614 12.10418548 72.05106508 24.20829865 72.0625 36.3125 C72.06335602 37.21217499 72.06421204 38.11184998 72.06509399 39.03878784 C72.0930902 72.37480712 71.68023354 105.66855662 71 139 C47.57 139 24.14 139 0 139 C0 93.13 0 47.26 0 0 Z " fill="#5386C5" transform="translate(234,302)"/>
<path d="M0 0 C23.43 0 46.86 0 71 0 C71 46.2 71 92.4 71 140 C47.57 140 24.14 140 0 140 C-0.165 131.29625 -0.33 122.5925 -0.5 113.625 C-0.55220703 110.93811035 -0.60441406 108.2512207 -0.65820312 105.48291016 C-0.88214053 93.56414228 -1.04837897 81.64759859 -1.0625 69.7265625 C-1.06479614 68.67852448 -1.06709229 67.63048645 -1.06945801 66.5506897 C-1.06340702 60.59959886 -0.88877333 54.68818243 -0.5 48.75 C0.49447126 32.5396515 0.0571267 16.22398291 0 0 Z " fill="#F16137" transform="translate(715,302)"/>
<path d="M0 0 C35.31 0.33 70.62 0.66 107 1 C107.75531179 47.35726133 108.09618902 93.63689016 108 140 C85.56 140 63.12 140 40 140 C40 133.30678244 40.63501211 131.16162936 44 126 C44.85363319 124.55951481 45.70103835 123.1153251 46.54296875 121.66796875 C47.87852035 119.40368291 49.21544166 117.14021105 50.55273438 114.87695312 C50.98263672 114.14798828 51.41253906 113.41902344 51.85546875 112.66796875 C52.24371826 112.01078857 52.63196777 111.3536084 53.03198242 110.67651367 C54.69728207 107.79237429 55.23134953 105.68650471 55.5625 102.375 C55.64628906 101.55773437 55.73007812 100.74046875 55.81640625 99.8984375 C55.90728516 98.95871094 55.90728516 98.95871094 56 98 C53.02934491 98.34227572 53.02934491 98.34227572 50 99 C49.67 99.66 49.34 100.32 49 101 C49 92.42 49 83.84 49 75 C49.99 75 50.98 75 52 75 C52 75.66 52 76.32 52 77 C53.65 77 55.3 77 57 77 C53.85056823 70.40764718 50.37632685 64.23246237 46.375 58.125 C41.47235295 50.5425647 37.02351838 42.80536856 32.91748047 34.76220703 C28.20411531 25.81620681 21.36165043 20.24704317 13.375 14.25 C12.63765625 13.68667969 11.9003125 13.12335938 11.140625 12.54296875 C8.13797486 10.26676622 5.32464287 8.16945184 1.9765625 6.421875 C1.32429688 5.95265625 0.67203125 5.4834375 0 5 C0 3.35 0 1.7 0 0 Z " fill="#285BA3" transform="translate(391,301)"/>
<path d="M0 0 C5.90522402 4.71970556 10.17838995 11.30860735 12.5625 18.4609375 C13.70132182 30.75078838 13.4481697 42.73074145 5.4375 52.7109375 C-3.36363027 61.87014373 -11.76854308 65.57279779 -24.3125 65.8359375 C-35.47561603 65.7820961 -42.20516891 62.50333515 -50.23828125 54.8359375 C-57.94160214 46.51689824 -60.81699294 37.34811689 -60.6484375 26.10546875 C-59.86285427 16.25658273 -55.33572111 7.77404303 -48.0625 1.1484375 C-34.16856264 -9.94206682 -14.76265959 -9.32129468 0 0 Z " fill="#09192C" transform="translate(379.4375,562.5390625)"/>
<path d="M0 0 C0.79612198 -0.00807175 1.59224396 -0.01614349 2.41249084 -0.02445984 C4.10643321 -0.03832656 5.80040382 -0.04903707 7.49438477 -0.05688477 C10.05606548 -0.07394182 12.61640216 -0.11778196 15.17773438 -0.16210938 C28.43016018 -0.28947648 38.32116317 1.65206862 48.16015625 11.23828125 C55.79592724 20.86680224 56.18360455 31.43981564 55.16015625 43.23828125 C53.47854364 52.04135397 47.42828984 59.60889914 40.11328125 64.6484375 C38.16352285 65.67401042 36.2131892 66.44272206 34.16015625 67.23828125 C32.95488281 67.76164063 31.74960937 68.285 30.5078125 68.82421875 C23.16617816 71.25211935 15.23673636 70.55158278 7.59765625 70.42578125 C6.00066366 70.41070764 4.40365731 70.39702397 2.80664062 70.38476562 C-1.07586499 70.3519705 -4.95770008 70.30033699 -8.83984375 70.23828125 C-8.86296941 61.25907348 -8.88075998 52.27987588 -8.89165592 43.30064487 C-8.89688426 39.13165297 -8.90398101 34.96268138 -8.9152832 30.79370117 C-8.92611383 26.77370439 -8.93212096 22.7537272 -8.93472099 18.73371696 C-8.93657493 17.1966515 -8.94019494 15.65958716 -8.94557381 14.12252998 C-8.95278659 11.97692638 -8.95383459 9.8314047 -8.95336914 7.68579102 C-8.95558975 6.46223404 -8.95781036 5.23867706 -8.96009827 3.9780426 C-8.71945694 -1.50449408 -4.43648935 0.042407 0 0 Z " fill="#0A1A2C" transform="translate(486.83984375,556.76171875)"/>
<path d="M0 0 C23.76 0 47.52 0 72 0 C72 15.51 72 31.02 72 47 C78.6 47 85.2 47 92 47 C92 47.33 92 47.66 92 48 C80.15234827 48.02312202 68.30470186 48.04091437 56.4570322 48.05181217 C50.95629138 48.05704131 45.45556595 48.06413951 39.95483398 48.07543945 C34.6510344 48.08626725 29.34724965 48.0922766 24.04343987 48.09487724 C22.01514388 48.09673169 19.98684874 48.10035267 17.95855904 48.10573006 C15.12803486 48.11293906 12.29757282 48.113991 9.46704102 48.11352539 C8.19605812 48.1189183 8.19605812 48.1189183 6.8993988 48.12442017 C1.11405216 48.11405216 1.11405216 48.11405216 0 47 C-0.09304018 45.52645652 -0.11746265 44.04849409 -0.11352539 42.57202148 C-0.11340454 41.61791382 -0.11328369 40.66380615 -0.11315918 39.68078613 C-0.10804321 38.67108765 -0.10292725 37.66138916 -0.09765625 36.62109375 C-0.09664917 35.69816528 -0.09564209 34.77523682 -0.09460449 33.82434082 C-0.08935494 30.36204799 -0.07539381 26.8997728 -0.0625 23.4375 C-0.041875 15.703125 -0.02125 7.96875 0 0 Z " fill="#393A5A" transform="translate(234,464)"/>
<path d="M0 0 C2.75589213 -0.08715331 5.50902368 -0.15111384 8.265625 -0.20166016 C9.43472412 -0.24221275 9.43472412 -0.24221275 10.62744141 -0.28358459 C16.42923452 -0.36349857 16.42923452 -0.36349857 19.34593201 1.49403381 C20.92864796 3.44700248 21.95174684 5.34115771 23 7.625 C23.85229327 9.17869895 24.70516781 10.73207917 25.55859375 12.28515625 C26.1616333 13.46489014 26.1616333 13.46489014 26.77685547 14.66845703 C28.66524016 18.26807257 30.85379844 21.65368952 33.0625 25.0625 C33.43310547 25.66336426 33.80371094 26.26422852 34.18554688 26.88330078 C35.06942813 28.29110223 36.02776944 29.65169784 37 31 C37.66 31 38.32 31 39 31 C40.58857786 28.67517741 42.05378062 26.34906184 43.5 23.9375 C43.94722412 23.22464844 44.39444824 22.51179687 44.85522461 21.77734375 C47.53323325 17.50531593 50.00395779 13.20688982 52.22680664 8.67993164 C57.2706426 0.44808896 57.2706426 0.44808896 61.0372324 -0.5278616 C63.33596731 -0.63893116 65.54454546 -0.56960439 67.83984375 -0.40625 C68.62613159 -0.37692383 69.41241943 -0.34759766 70.22253418 -0.31738281 C72.14975703 -0.24126007 74.07530852 -0.12468069 76 0 C76.02312566 8.97920777 76.04091623 17.95840537 76.05181217 26.93763638 C76.05704051 31.10662828 76.06413726 35.27559987 76.07543945 39.44458008 C76.08627008 43.46457686 76.09227721 47.48455405 76.09487724 51.50456429 C76.09673118 53.04162975 76.10035119 54.57869409 76.10573006 56.11575127 C76.11294284 58.26135487 76.11399084 60.40687655 76.11352539 62.55249023 C76.115746 63.77604721 76.11796661 64.99960419 76.12025452 66.26023865 C76 69 76 69 75 70 C72.64686445 70.07271741 70.29166332 70.08370868 67.9375 70.0625 C66.00197266 70.04896484 66.00197266 70.04896484 64.02734375 70.03515625 C63.02832031 70.02355469 62.02929688 70.01195312 61 70 C59.30973863 66.61947726 59.75555041 62.77739858 59.68359375 59.0546875 C59.66281265 58.1696756 59.64203156 57.2846637 59.62062073 56.37283325 C59.55513402 53.54030259 59.49624438 50.70767775 59.4375 47.875 C59.39431394 45.95702143 59.35069963 44.03905246 59.30664062 42.12109375 C59.19945353 37.41415949 59.0981836 32.70713033 59 28 C58.61666504 28.65073486 58.23333008 29.30146973 57.83837891 29.97192383 C56.10146886 32.9193039 54.3632498 35.86590988 52.625 38.8125 C52.02171875 39.83666016 51.4184375 40.86082031 50.796875 41.91601562 C50.21679688 42.89892578 49.63671875 43.88183594 49.0390625 44.89453125 C48.50490723 45.80050049 47.97075195 46.70646973 47.42041016 47.63989258 C46.32748637 49.45585928 45.17567885 51.23648172 44 53 C39.88535781 53.96090446 36.12256644 53.8962101 32 53 C28.87800467 50.43092825 27.94406063 47.75851722 26 44 C21.545 36.575 21.545 36.575 17 29 C16.67 42.53 16.34 56.06 16 70 C11.05 70 6.1 70 1 70 C0 69 0 69 -0.12025452 66.26023865 C-0.11803391 65.03668167 -0.11581329 63.81312469 -0.11352539 62.55249023 C-0.11367142 61.87934784 -0.11381744 61.20620544 -0.1139679 60.51266479 C-0.11326878 58.27794216 -0.10547652 56.0433019 -0.09765625 53.80859375 C-0.09579206 52.26302638 -0.09436816 50.71745843 -0.09336853 49.17189026 C-0.0895434 45.09642923 -0.07971317 41.02100363 -0.06866455 36.94555664 C-0.05845032 32.78988118 -0.05387089 28.63420001 -0.04882812 24.47851562 C-0.03809089 16.31899413 -0.02101454 8.15950147 0 0 Z " fill="#0B1B2E" transform="translate(232,557)"/>
<path d="M0 0 C1.32572021 0.00966797 1.32572021 0.00966797 2.67822266 0.01953125 C18.30753143 0.1850576 33.94112197 0.73140137 49.5625 1.1875 C49.8925 15.0475 50.2225 28.9075 50.5625 43.1875 C26.52772161 44.20484512 2.62376318 44.26388496 -21.4375 44.1875 C-21.4375 30.3275 -21.4375 16.4675 -21.4375 2.1875 C-13.87818625 0.92761438 -7.46524644 -0.1197073 0 0 Z " fill="#2E6DA9" transform="translate(255.4375,236.8125)"/>
<path d="M0 0 C2.55945885 -0.14927035 5.1101512 -0.25778237 7.671875 -0.34375 C8.39101074 -0.38983398 9.11014648 -0.43591797 9.85107422 -0.48339844 C15.1422747 -0.61643434 15.1422747 -0.61643434 17.64503288 1.18226051 C19.95083867 3.57597315 21.90299885 6.21551018 23.5703125 9.0859375 C26.1460795 13.3216909 29.10786801 17.19685703 32.125 21.125 C36.82693893 27.36180236 41.40530695 33.68229706 46 40 C46.33 26.8 46.66 13.6 47 0 C52.28 0 57.56 0 63 0 C63.04516048 8.81428261 63.08186399 17.62848855 63.10362434 26.4428606 C63.1140675 30.53559983 63.12823636 34.6282559 63.15087891 38.72094727 C63.17258839 42.66963711 63.18456462 46.61824689 63.18975449 50.56699181 C63.19345366 52.07450305 63.20067711 53.58200986 63.21146011 55.08948708 C63.22595004 57.19883363 63.22797902 59.30784812 63.22705078 61.41723633 C63.231492 62.61858719 63.23593323 63.81993805 63.24050903 65.05769348 C63 68 63 68 61 71 C57.2340992 71.91805542 53.78146508 71.7983093 50 71 C46.93418883 68.84435152 45.08615074 66.08025544 43 63 C42.38898437 62.17886719 41.77796875 61.35773437 41.1484375 60.51171875 C39.05862075 57.70170618 37.02609369 54.85628009 35 52 C33.77283706 50.27357497 32.5448219 48.54776625 31.31567383 46.82275391 C30.13631296 45.16618039 28.96061126 43.50700354 27.78515625 41.84765625 C23.95103028 36.49626635 19.96130849 31.25744215 16 26 C16.00785522 27.94604126 16.00785522 27.94604126 16.01586914 29.93139648 C16.03391469 34.72647415 16.04543037 39.5215488 16.05493164 44.31665039 C16.05997288 46.39543156 16.06680574 48.47420916 16.07543945 50.55297852 C16.08751422 53.53402586 16.09323024 56.51502649 16.09765625 59.49609375 C16.10281754 60.43150497 16.10797882 61.3669162 16.11329651 62.33067322 C16.11340981 63.62189842 16.11340981 63.62189842 16.11352539 64.93920898 C16.115746 65.70087875 16.11796661 66.46254852 16.12025452 67.24729919 C16 69 16 69 15 70 C12.66839945 70.09909302 10.33370058 70.12970504 8 70.125 C6.72125 70.12757813 5.4425 70.13015625 4.125 70.1328125 C1 70 1 70 0 69 C-0.09425595 66.85256451 -0.11742648 64.70198974 -0.11352539 62.55249023 C-0.11367142 61.87934784 -0.11381744 61.20620544 -0.1139679 60.51266479 C-0.11326878 58.27794216 -0.10547652 56.0433019 -0.09765625 53.80859375 C-0.09579206 52.26302638 -0.09436816 50.71745843 -0.09336853 49.17189026 C-0.0895434 45.09642923 -0.07971317 41.02100363 -0.06866455 36.94555664 C-0.05845032 32.78988118 -0.05387089 28.63420001 -0.04882812 24.47851562 C-0.03809089 16.31899413 -0.02101454 8.15950147 0 0 Z " fill="#09192C" transform="translate(724,557)"/>
<path d="M0 0 C16 0 16 0 20.0546875 3.2265625 C21.52124023 5.33422852 21.52124023 5.33422852 22.875 7.625 C23.39199463 8.39320068 23.90898926 9.16140137 24.44165039 9.95288086 C25.4944233 11.5220717 26.52580477 13.10583803 27.53466797 14.70361328 C29.30675724 17.48073285 31.21370604 20.13783692 33.15332031 22.79931641 C34.3969785 24.50686383 35.61707229 26.22898812 36.83203125 27.95703125 C39.15552022 31.21828874 41.56295676 34.40044229 44.0390625 37.546875 C45 39 45 39 45 41 C45.66 41 46.32 41 47 41 C47 27.47 47 13.94 47 0 C51.95 0 56.9 0 62 0 C62.54910577 18.76765062 63.09437456 37.53608347 63.1875 56.3125 C63.20039063 57.57336426 63.21328125 58.83422852 63.2265625 60.13330078 C63.22849609 61.85589111 63.22849609 61.85589111 63.23046875 63.61328125 C63.23457764 64.61141846 63.23868652 65.60955566 63.24291992 66.63793945 C63 69 63 69 61 71 C57.22447917 71.76386989 53.77914753 71.73263808 50 71 C46.88417292 68.92492341 45.09580883 66.06242926 43 63 C42.16481287 61.87024057 41.32459125 60.74419264 40.48046875 59.62109375 C34.98794284 52.2801872 29.6881154 44.79596587 24.38671875 37.31640625 C21.64416065 33.5055522 18.81707722 29.75610296 16 26 C15.67 40.52 15.34 55.04 15 70 C10.05 70 5.1 70 0 70 C0 46.9 0 23.8 0 0 Z " fill="#08192C" transform="translate(403,557)"/>
<path d="M0 0 C1.87075195 -0.01836914 1.87075195 -0.01836914 3.77929688 -0.03710938 C25.24626367 -0.07095115 25.24626367 -0.07095115 32 6.609375 C36.40585873 11.66609922 36.91248917 15.65883211 36.84375 22.12890625 C36.26368255 28.43713976 34.46467286 34.1902185 30.0625 38.8125 C27.83613496 40.03700077 26.06624365 40.81657502 23.5625 41.1875 C26.37089115 46.28803393 29.98298379 50.74274877 33.5625 55.3125 C34.1915625 56.12332031 34.820625 56.93414063 35.46875 57.76953125 C39.29180872 62.67591204 39.29180872 62.67591204 43.5625 67.1875 C43.0675 68.6725 43.0675 68.6725 42.5625 70.1875 C39.83166098 70.32298815 37.10758193 70.42179855 34.375 70.5 C33.60607422 70.54189453 32.83714844 70.58378906 32.04492188 70.62695312 C28.00582676 70.71362899 26.14553292 70.62540026 22.83203125 68.13671875 C20.21543694 64.73649723 17.76891929 61.28800991 15.4375 57.6875 C15.00824219 57.03652344 14.57898438 56.38554688 14.13671875 55.71484375 C12.31423266 52.93905725 10.58924022 50.23958042 9.0703125 47.28125 C7.72031557 44.92802602 7.72031557 44.92802602 4.96826172 44.55664062 C4.17436035 44.43482422 3.38045898 44.31300781 2.5625 44.1875 C2.57035522 45.3156311 2.57035522 45.3156311 2.57836914 46.46655273 C2.59907227 49.85269342 2.61213877 53.23882084 2.625 56.625 C2.63337891 57.80900391 2.64175781 58.99300781 2.65039062 60.21289062 C2.65522461 61.89995117 2.65522461 61.89995117 2.66015625 63.62109375 C2.66801147 65.18428345 2.66801147 65.18428345 2.67602539 66.77905273 C2.5625 69.1875 2.5625 69.1875 1.5625 70.1875 C-0.76910055 70.28659302 -3.10379942 70.31720504 -5.4375 70.3125 C-6.71625 70.31507813 -7.995 70.31765625 -9.3125 70.3203125 C-12.4375 70.1875 -12.4375 70.1875 -13.4375 69.1875 C-13.55976718 67.79037131 -13.61523815 66.38730461 -13.64282227 64.98510742 C-13.66276749 64.08874069 -13.68271271 63.19237396 -13.70326233 62.2688446 C-13.71997482 61.28680557 -13.73668732 60.30476654 -13.75390625 59.29296875 C-13.77468735 58.27640701 -13.79546844 57.25984528 -13.81687927 56.21247864 C-13.86027839 54.04265744 -13.90130292 51.87278769 -13.94018555 49.70288086 C-13.99856586 46.45479089 -14.06399691 43.20690954 -14.13085938 39.95898438 C-14.33155356 29.8653724 -14.48416364 19.77138352 -14.52734375 9.67578125 C-14.53407608 8.8274321 -14.54080841 7.97908295 -14.54774475 7.10502625 C-14.55010871 5.13217663 -14.49963686 3.15937226 -14.4375 1.1875 C-11.73474875 -1.51525125 -3.63581699 0.00182796 0 0 Z " fill="#091A2C" transform="translate(566.4375,556.8125)"/>
<path d="M0 0 C4.62 0 9.24 0 14 0 C17.14432943 6.95495723 20.07813113 13.98402527 22.97387695 21.04571533 C26.69892339 30.12544278 30.45722404 39.18078801 34.5 48.125 C42.42406837 65.7277949 42.42406837 65.7277949 41 70 C38.73020335 70.10794277 36.45894804 70.18556176 34.1875 70.25 C32.92292969 70.29640625 31.65835938 70.3428125 30.35546875 70.390625 C27 70 27 70 25.23828125 68.421875 C23.67055665 65.35566285 22.35655977 62.16530614 21 59 C11.43 58.67 1.86 58.34 -8 58 C-8.99 61.3 -9.98 64.6 -11 68 C-13 70 -13 70 -16.4765625 70.1953125 C-17.85950968 70.18201493 -19.24238654 70.15816232 -20.625 70.125 C-21.68460938 70.11146484 -21.68460938 70.11146484 -22.765625 70.09765625 C-24.51056098 70.07407603 -26.25532295 70.03820461 -28 70 C-28 66.50431312 -27.87531842 65.19886606 -26.609375 62.171875 C-26.31160156 61.45386719 -26.01382813 60.73585938 -25.70703125 59.99609375 C-25.39121094 59.25488281 -25.07539062 58.51367188 -24.75 57.75 C-24.44964844 57.02425781 -24.14929688 56.29851563 -23.83984375 55.55078125 C-22.36992078 52.0417311 -20.81364444 48.61714548 -19.08911133 45.22583008 C-17.08011806 41.23177047 -15.33306626 37.16839863 -13.65234375 33.02734375 C-13.35437393 32.30059952 -13.05640411 31.57385529 -12.74940491 30.8250885 C-11.80920746 28.53039777 -10.87319497 26.23402986 -9.9375 23.9375 C-8.99734983 21.63777037 -8.05632689 19.3384003 -7.11488342 17.03919983 C-6.53291533 15.61709022 -5.95183042 14.19461872 -5.37181091 12.77171326 C-3.62559138 8.49458623 -1.83065365 4.24170811 0 0 Z " fill="#0A1B2E" transform="translate(674,557)"/>
<path d="M0 0 C4.76745759 3.06479417 8.78135654 7.75983311 10.078125 13.3359375 C10.84031352 20.19563416 10.18327449 25.66451559 6.078125 31.3359375 C2.12376759 35.59364287 -2.1984333 38.00466098 -7.97265625 38.70703125 C-15.33206973 38.85686362 -20.34629931 38.36083905 -25.921875 33.3359375 C-31.17782422 27.80335937 -32.41318217 22.57778153 -32.22265625 15.1171875 C-31.6378013 9.70917809 -29.98125741 6.03845942 -25.7578125 2.546875 C-17.25630997 -3.29617723 -9.4696419 -4.66859968 0 0 Z " fill="#F7F8F9" transform="translate(366.921875,573.6640625)"/>
<path d="M0 0 C3.3 -0.0825 6.6 -0.165 10 -0.25 C11.02351563 -0.28641602 12.04703125 -0.32283203 13.1015625 -0.36035156 C19.91660125 -0.44211093 25.5381714 0.62548996 30.55834961 5.51904297 C35.45608253 11.2222271 35.5044731 15.9754074 35.3359375 23.28125 C34.96461196 27.39173733 34.3701665 29.66465781 31.6328125 32.70703125 C21.74142788 40.53968271 13.20098224 39 0 39 C0 26.13 0 13.26 0 0 Z " fill="#0C1B2E" transform="translate(351,656)"/>
<path d="M0 0 C20 0 20 0 28 5 C33.49859401 10.78057319 33.30199072 16.08707279 33.20703125 23.8046875 C32.81730985 29.8196329 31.02045376 33.3132815 26.5 37.375 C18.43946254 43.98605485 12.14437554 41 0 41 C0 27.47 0 13.94 0 0 Z " fill="#F8F9FA" transform="translate(493,571)"/>
<path d="M0 0 C4.95 0 9.9 0 15 0 C15 22.77 15 45.54 15 69 C12.13366205 70.43316898 9.62764499 70.13200361 6.4375 70.125 C4.67212891 70.12886719 4.67212891 70.12886719 2.87109375 70.1328125 C0 70 0 70 -1 69 C-1.09948193 66.88862099 -1.12799638 64.77387714 -1.12939453 62.66015625 C-1.13202301 61.66748245 -1.13202301 61.66748245 -1.13470459 60.65475464 C-1.13912217 58.4573101 -1.13618547 56.25994542 -1.1328125 54.0625 C-1.13348557 52.54174789 -1.13445561 51.02099588 -1.13571167 49.50024414 C-1.13718851 46.30907164 -1.13503452 43.11792708 -1.13037109 39.92675781 C-1.1246738 35.8273547 -1.12795288 31.72801704 -1.13394356 27.62861633 C-1.13754954 24.48717756 -1.13641042 21.34575442 -1.13381577 18.20431519 C-1.1331466 16.69237256 -1.13397457 15.18042854 -1.13629532 13.66848755 C-1.13882245 11.55890113 -1.13498044 9.44942213 -1.12939453 7.33984375 C-1.12859894 6.13706787 -1.12780334 4.93429199 -1.12698364 3.69506836 C-1 1 -1 1 0 0 Z " fill="#0E1E30" transform="translate(621,557)"/>
<path d="M0 0 C9 0 9 0 11.03149414 1.56054688 C11.44520264 2.27275391 11.85891113 2.98496094 12.28515625 3.71875 C12.75244141 4.48574219 13.21972656 5.25273438 13.70117188 6.04296875 C14.15041016 6.85378906 14.59964844 7.66460938 15.0625 8.5 C15.54654297 9.31082031 16.03058594 10.12164063 16.52929688 10.95703125 C17.71688333 12.95593915 18.87094667 14.96764042 20 17 C22.84532443 13.55797398 25.3268643 10.03930676 27.6875 6.25 C30.90747331 1.09252669 30.90747331 1.09252669 32 0 C34.97 0 37.94 0 41 0 C41 12.87 41 25.74 41 39 C38.36 39 35.72 39 33 39 C33 31.41 33 23.82 33 16 C30.13876416 18.86123584 28.68380789 21.15280732 26.8125 24.6875 C26.28269531 25.68136719 25.75289062 26.67523437 25.20703125 27.69921875 C24.80871094 28.45847656 24.41039062 29.21773437 24 30 C21.69 30 19.38 30 17 30 C13.04 23.07 13.04 23.07 9 16 C8.67 23.59 8.34 31.18 8 39 C5.36 39 2.72 39 0 39 C0 26.13 0 13.26 0 0 Z " fill="#071729" transform="translate(530,656)"/>
<path d="M0 0 C9 0 9 0 11.3828125 1.87109375 C11.95773437 2.71800781 12.53265625 3.56492187 13.125 4.4375 C13.76824219 5.34242188 14.41148437 6.24734375 15.07421875 7.1796875 C15.70972656 8.11039063 16.34523438 9.04109375 17 10 C18.30114519 11.69627052 19.61289399 13.38448587 20.9375 15.0625 C21.78634766 16.16271484 21.78634766 16.16271484 22.65234375 17.28515625 C23.88860442 18.9282862 23.88860442 18.9282862 25 20 C25.33 13.4 25.66 6.8 26 0 C28.64 0 31.28 0 34 0 C34 12.87 34 25.74 34 39 C27 39 27 39 25.18310547 37.64233398 C24.74885254 37.01657471 24.31459961 36.39081543 23.8671875 35.74609375 C23.37089844 35.05580078 22.87460937 34.36550781 22.36328125 33.65429688 C21.87214844 32.92275391 21.38101562 32.19121094 20.875 31.4375 C20.37613281 30.73302734 19.87726563 30.02855469 19.36328125 29.30273438 C18.41784186 27.96356761 17.48151079 26.61788182 16.55810547 25.26342773 C14.41289179 22.14712 12.19899514 19.07859319 10 16 C9.67 23.59 9.34 31.18 9 39 C6.03 39 3.06 39 0 39 C0 26.13 0 13.26 0 0 Z " fill="#09192B" transform="translate(438,656)"/>
<path d="M0 0 C2.64 0 5.28 0 8 0 C11.88725271 8.07938799 15.4402352 16.28237263 18.875 24.5625 C19.28032959 25.52623535 19.68565918 26.4899707 20.10327148 27.48291016 C20.47911377 28.39733887 20.85495605 29.31176758 21.2421875 30.25390625 C21.5810498 31.07189697 21.91991211 31.8898877 22.26904297 32.73266602 C23 35 23 35 23 39 C20.36 39 17.72 39 15 39 C14.01 37.02 13.02 35.04 12 33 C6.39 32.67 0.78 32.34 -5 32 C-5.66 34.31 -6.32 36.62 -7 39 C-9.97 39 -12.94 39 -16 39 C-15.4277623 34.71317426 -14.39535021 31.17203687 -12.63671875 27.2265625 C-12.16169922 26.1540625 -11.68667969 25.0815625 -11.19726562 23.9765625 C-10.69904297 22.87054687 -10.20082031 21.76453125 -9.6875 20.625 C-8.95756836 18.97757813 -8.95756836 18.97757813 -8.21289062 17.296875 C-5.61118901 11.45617743 -2.91470429 5.69094282 0 0 Z " fill="#0D1D30" transform="translate(498,656)"/>
<path d="M0 0 C1.093125 0.66 2.18625 1.32 3.3125 2 C2.9220066 4.26486171 2.40839047 5.85343831 1.14453125 7.78515625 C-1.64750113 9.63658924 -3.74833062 8.91381143 -7 8.4375 C-12.44900712 7.75320742 -12.44900712 7.75320742 -17.375 9.6875 C-20.24721808 12.44917551 -20.24721808 12.44917551 -21.6875 16 C-21.37548687 20.29018057 -20.71154501 24.17680387 -18.6875 28 C-15.65228606 29.01173798 -13.49016921 29.16573514 -10.3125 29.1875 C-9.37664063 29.20167969 -8.44078125 29.21585938 -7.4765625 29.23046875 C-4.52631846 28.98668108 -2.36385888 28.23112508 0.3125 27 C2.7875 29.97 2.7875 29.97 5.3125 33 C-2.52339138 38.3980585 -9.38092293 39.00821252 -18.6875 38 C-23.6331816 35.93929934 -27.6478141 32.0031857 -30.06640625 27.1875 C-31.78829504 21.12298602 -31.47164531 14.53694069 -29.625 8.5625 C-22.38544308 -1.01239786 -11.40358604 -5.7220841 0 0 Z " fill="#0B1B2E" transform="translate(632.6875,657)"/>
<path d="M0 0 C3.25 1.625 3.25 1.625 6.25 3.625 C5.59 5.275 4.93 6.925 4.25 8.625 C-0.04 8.295 -4.33 7.965 -8.75 7.625 C-9.08 9.275 -9.41 10.925 -9.75 12.625 C-9.24210938 12.87894531 -8.73421875 13.13289062 -8.2109375 13.39453125 C-6.77916581 14.11041709 -5.34821836 14.82795307 -3.91796875 15.546875 C-2.1022739 16.44981514 -0.2715233 17.32239467 1.5625 18.1875 C4.06981232 19.52862054 5.48266723 20.44748398 7.25 22.625 C8.10588829 26.36951128 8.09302743 30.11691761 6.1953125 33.51171875 C4.42912306 35.66981413 2.75797727 37.37101136 0.25 38.625 C-7.0690245 39.15729269 -13.26608422 39.22717544 -19.75 35.625 C-20.41 35.295 -21.07 34.965 -21.75 34.625 C-21.09 33.305 -20.43 31.985 -19.75 30.625 C-19.09 30.625 -18.43 30.625 -17.75 30.625 C-17.75 29.965 -17.75 29.305 -17.75 28.625 C-16.76 28.79 -15.77 28.955 -14.75 29.125 C-10.72267058 29.70974517 -6.81525377 29.69632024 -2.75 29.625 C-2.7621701 27.71828386 -2.7621701 27.71828386 -3.75 25.625 C-6.94640109 23.65696792 -10.26298641 22.12156636 -13.6484375 20.50390625 C-16.96826159 18.49277856 -18.16882046 17.12023899 -19.75 13.625 C-20.33496307 9.69739081 -19.93285914 7.97040059 -18.0625 4.4375 C-12.84178606 -1.91201696 -7.71087256 -2.82731994 0 0 Z " fill="#0C1C2F" transform="translate(665.75,656.375)"/>
<path d="M0 0 C57.09 0 114.18 0 173 0 C173 7.59 173 15.18 173 23 C172.67 23 172.34 23 172 23 C172 15.74 172 8.48 172 1 C115.9 1 59.8 1 2 1 C1.35430285 5.51988007 0.87539852 9.28348799 0.87974548 13.73912048 C0.87836799 14.83191535 0.87699049 15.92471022 0.87557125 17.05062008 C0.87916936 18.23395207 0.88276747 19.41728407 0.88647461 20.63647461 C0.88635407 21.9159903 0.88623354 23.195506 0.88610935 24.5137949 C0.88588461 27.95891045 0.89165899 31.4039909 0.89871979 34.84909821 C0.90443627 38.08791505 0.90468408 41.32673047 0.90539551 44.56555176 C0.9106322 54.02287244 0.92459344 63.48018667 0.9375 72.9375 C0.958125 94.078125 0.97875 115.21875 1 137 C66.835 137.495 66.835 137.495 134 138 C134 138.33 134 138.66 134 139 C89.45 139 44.9 139 -1 139 C-1.0309375 105.71125 -1.0309375 105.71125 -1.0625 71.75 C-1.071604 64.7384668 -1.08070801 57.72693359 -1.09008789 50.50292969 C-1.09460449 41.95166016 -1.09460449 41.95166016 -1.09544373 37.95050049 C-1.09637668 35.15150157 -1.10012941 32.35252155 -1.10557556 29.55352783 C-1.11242831 25.98441947 -1.11449231 22.41533864 -1.11307228 18.84622431 C-1.11350951 16.91673961 -1.11887627 14.98725797 -1.12442875 13.05778122 C-1.12305125 11.91873966 -1.12167376 10.7796981 -1.12025452 9.60614014 C-1.12163721 8.11836626 -1.12163721 8.11836626 -1.12304783 6.60053635 C-1 4 -1 4 0 0 Z " fill="#D5B248" transform="translate(520,302)"/>
<path d="M0 0 C3.56975433 -0.77572126 6.4700002 -1.04516685 10 0 C13.05079772 3.66739129 15.05083398 7.66278289 17 12 C20.97531782 10.67489406 21.16494898 9.08807113 23.0625 5.4375 C26.20674765 0.21508008 26.20674765 0.21508008 29.6796875 -0.7265625 C32.20181009 -0.69083838 34.52829083 -0.49235253 37 0 C35.38906918 4.7591499 32.75380214 8.58055869 29.9375 12.6875 C25.60703106 19.05869484 23.82050273 22.88960052 23.4375 30.625 C23.39431641 31.42679688 23.35113281 32.22859375 23.30664062 33.0546875 C23.20048543 35.0362511 23.09973145 37.01810271 23 39 C20.03 39 17.06 39 14 39 C14.00902344 37.88882813 14.01804687 36.77765625 14.02734375 35.6328125 C13.90684361 25.62341809 12.72921841 19.7550139 6 12 C4.82835898 10.3724378 3.68104406 8.72700009 2.5625 7.0625 C2.06878906 6.35222656 1.57507813 5.64195312 1.06640625 4.91015625 C0 3 0 3 0 0 Z " fill="#0C1C2E" transform="translate(392,656)"/>
<path d="M0 0 C9 0 9 0 11.6640625 2.08203125 C12.31117188 2.98308594 12.95828125 3.88414062 13.625 4.8125 C14.29789062 5.70582031 14.97078125 6.59914063 15.6640625 7.51953125 C16.10492188 8.33808594 16.54578125 9.15664063 17 10 C16 13 16 13 14 14 C13.34444881 16.52733235 13.34444881 16.52733235 13 19 C12.01 18.01 11.02 17.02 10 16 C9.67 23.59 9.34 31.18 9 39 C6.03 39 3.06 39 0 39 C0 26.13 0 13.26 0 0 Z " fill="#122233" transform="translate(438,656)"/>
<path d="M0 0 C11.66666667 0 11.66666667 0 16.875 4.6875 C18.53388477 8.0974298 18.53476711 11.32256043 18 15 C16.70727212 18.06172394 15.41968278 19.63118786 12.9375 21.8125 C10 23 10 23 0 23 C0 15.41 0 7.82 0 0 Z " fill="#F3F4F6" transform="translate(360,664)"/>
<path d="M0 0 C2.97 0 5.94 0 9 0 C9 12.87 9 25.74 9 39 C6.03 39 3.06 39 0 39 C0 26.13 0 13.26 0 0 Z " fill="#0E1D2F" transform="translate(583,656)"/>
<path d="M0 0 C2.58445773 -0.1081866 5.16437352 -0.18737237 7.75 -0.25 C8.47960937 -0.28351562 9.20921875 -0.31703125 9.9609375 -0.3515625 C13.50798929 -0.41605435 15.57163991 -0.30866135 18.48828125 1.79296875 C20.67138535 4.98018791 20.47973802 7.23062984 20 11 C18.16884793 13.61593153 17.09031634 13.96989455 14 15 C9.33032246 15.13590447 4.67262015 15.04286807 0 15 C0 10.05 0 5.1 0 0 Z " fill="#F3F4F6" transform="translate(568,572)"/>
<path d="M0 0 C0.33 0 0.66 0 1 0 C1.02333003 14.58571195 1.04091327 29.17142103 1.05181217 43.75714779 C1.05697491 50.52910421 1.06401718 57.30104905 1.07543945 64.07299805 C1.08644714 70.60224426 1.09227625 77.13148294 1.09487724 83.66073799 C1.09673199 86.15793612 1.10035354 88.65513355 1.10573006 91.15232658 C1.11293684 94.63664069 1.1139911 98.12090431 1.11352539 101.60522461 C1.11712067 102.64891205 1.12071594 103.69259949 1.12442017 104.76791382 C1.1230455 105.71167374 1.12167084 106.65543365 1.12025452 107.62779236 C1.12117631 108.45279708 1.1220981 109.2778018 1.12304783 110.12780666 C1 112 1 112 0 113 C-2.73894085 113.08858646 -5.4525327 113.11523479 -8.19140625 113.09765625 C-9.01124496 113.0962413 -9.83108368 113.09482635 -10.67576599 113.09336853 C-13.30471382 113.08775289 -15.93357773 113.07519779 -18.5625 113.0625 C-20.34049357 113.05748701 -22.11848846 113.05292376 -23.89648438 113.04882812 C-28.26435545 113.03777839 -32.63216348 113.02050331 -37 113 C-35 111 -35 111 -31.65185547 110.77294922 C-30.22359367 110.77326625 -28.79530788 110.78458639 -27.3671875 110.8046875 C-26.23943405 110.80893234 -26.23943405 110.80893234 -25.08889771 110.81326294 C-22.68410422 110.82447126 -20.27968119 110.84957648 -17.875 110.875 C-16.24609912 110.88502898 -14.61719242 110.89415497 -12.98828125 110.90234375 C-8.99204444 110.92441265 -4.99608506 110.95894649 -1 111 C-1.00222061 110.05184418 -1.00444122 109.10368835 -1.00672913 108.12680054 C-1.02730227 99.04157131 -1.04213242 89.956347 -1.05181217 80.87109947 C-1.05695639 76.20409525 -1.0638929 71.53711031 -1.07543945 66.87011719 C-1.12922647 44.55638924 -0.97265899 22.29548187 0 0 Z " fill="#CCA93B" transform="translate(693,327)"/>
<path d="M0 0 C1.91796875 0.07421875 1.91796875 0.07421875 4 1 C5.30078125 3.58203125 5.30078125 3.58203125 6.3125 6.8125 C6.83263672 8.39998047 6.83263672 8.39998047 7.36328125 10.01953125 C8 13 8 13 7 17 C2.71 17 -1.58 17 -6 17 C-3.25 3.25 -3.25 3.25 0 0 Z " fill="#EBEDF0" transform="translate(680,583)"/>
<path d="M0 0 C1.8871875 0.061875 1.8871875 0.061875 3.8125 0.125 C3.8125 0.455 3.8125 0.785 3.8125 1.125 C3.24660156 1.24617188 2.68070312 1.36734375 2.09765625 1.4921875 C0.99744141 1.74355469 0.99744141 1.74355469 -0.125 2 C-0.85589844 2.16242188 -1.58679688 2.32484375 -2.33984375 2.4921875 C-4.39450294 2.95461523 -4.39450294 2.95461523 -5.1875 5.125 C-5.30965485 7.6262233 -5.37313281 10.10147987 -5.39282227 12.60400391 C-5.40272186 13.37482803 -5.41262146 14.14565216 -5.42282104 14.93983459 C-5.4544683 17.4937124 -5.47920617 20.04760882 -5.50390625 22.6015625 C-5.524473 24.36990855 -5.54546939 26.13824965 -5.56687927 27.90658569 C-5.62212881 32.56559243 -5.67152536 37.22464375 -5.71972656 41.88372803 C-5.76992056 46.63606747 -5.82561758 51.38834202 -5.88085938 56.140625 C-5.98847619 65.46869459 -6.08991333 74.79682047 -6.1875 84.125 C-6.5175 84.125 -6.8475 84.125 -7.1875 84.125 C-7.2569077 73.46811115 -7.31026419 62.81127578 -7.34293652 52.15420723 C-7.35861495 47.20607667 -7.37989277 42.25810036 -7.41381836 37.31005859 C-7.4463344 32.53791659 -7.4643366 27.76592325 -7.47213173 22.99367905 C-7.47768923 21.16993747 -7.48854119 19.34620433 -7.50469017 17.52252579 C-7.52636167 14.9746343 -7.52947129 12.42736285 -7.52807617 9.87939453 C-7.54425491 8.74003952 -7.54425491 8.74003952 -7.5607605 7.57766724 C-7.54826355 5.47854614 -7.54826355 5.47854614 -7.1875 2.125 C-4.09861478 0.06574319 -3.47814073 -0.1140374 0 0 Z " fill="#8B3E41" transform="translate(334.1875,123.875)"/>
<path d="M0 0 C0 2.66666667 0 5.33333333 0 8 C-2.475 7.505 -2.475 7.505 -5 7 C-5.268125 7.598125 -5.53625 8.19625 -5.8125 8.8125 C-6.98794363 10.97779089 -8.27644111 12.27644111 -10 14 C-10 14.66 -10 15.32 -10 16 C-15.2734375 19.22265625 -15.2734375 19.22265625 -17 20 C-17.66 19.67 -18.32 19.34 -19 19 C-12.98348207 12.26459665 -7.02537494 5.71692402 0 0 Z " fill="#E8BD44" transform="translate(551,167)"/>
<path d="M0 0 C4.29 0.66 8.58 1.32 13 2 C13 2.33 13 2.66 13 3 C11.35 3 9.7 3 8 3 C8 3.66 8 4.32 8 5 C7.360625 5.103125 6.72125 5.20625 6.0625 5.3125 C5.381875 5.539375 4.70125 5.76625 4 6 C3.67 6.99 3.34 7.98 3 9 C-1.75 7.125 -1.75 7.125 -4 6 C-3.34 4.68 -2.68 3.36 -2 2 C-1.34 2 -0.68 2 0 2 C0 1.34 0 0.68 0 0 Z " fill="#192737" transform="translate(648,685)"/>
<path d="M0 0 C0.66 0 1.32 0 2 0 C2.99 3.3 3.98 6.6 5 10 C2.36 10 -0.28 10 -3 10 C-2.49287967 6.28111761 -1.88391785 3.26545761 0 0 Z " fill="#DEE3E9" transform="translate(501,670)"/>
<path d="M0 0 C1.32 0 2.64 0 4 0 C3.67 0.99 3.34 1.98 3 3 C2.67 3 2.34 3 2 3 C1.67 15.54 1.34 28.08 1 41 C0.67 41 0.34 41 0 41 C0 27.47 0 13.94 0 0 Z " fill="#3B444F" transform="translate(771,557)"/>
<path d="M0 0 C2 2 2 2 2 5 C-0.74545456 8.05050507 -3.6462327 10.63994153 -7 13 C-5.35821735 8.22390502 -2.73453298 4.20617096 0 0 Z " fill="#192837" transform="translate(560,658)"/>
<path d="M0 0 C0 0.99 0 1.98 0 3 C-1.86328125 4.640625 -1.86328125 4.640625 -4.3125 6.25 C-5.11300781 6.79140625 -5.91351562 7.3328125 -6.73828125 7.890625 C-9 9 -9 9 -12 8 C-8.04 5.36 -4.08 2.72 0 0 Z " fill="#1A2533" transform="translate(557,128)"/>
<path d="M0 0 C3.3 0 6.6 0 10 0 C10 0.33 10 0.66 10 1 C9.030625 1.2475 8.06125 1.495 7.0625 1.75 C6.051875 2.1625 5.04125 2.575 4 3 C3.03122943 5.03243548 3.03122943 5.03243548 3 7 C0 3.375 0 3.375 0 0 Z " fill="#1C2734" transform="translate(392,656)"/>
<path d="M0 0 C0.91007812 0.00902344 1.82015625 0.01804687 2.7578125 0.02734375 C3.45648438 0.03894531 4.15515625 0.05054688 4.875 0.0625 C4.875 1.0525 4.875 2.0425 4.875 3.0625 C1.245 3.0625 -2.385 3.0625 -6.125 3.0625 C-6.455 2.4025 -6.785 1.7425 -7.125 1.0625 C-4.60024538 -0.19987731 -2.81299534 -0.03606404 0 0 Z " fill="#35404D" transform="translate(459.125,624.9375)"/>
<path d="M0 0 C-0.66 0 -1.32 0 -2 0 C-2.33 0.99 -2.66 1.98 -3 3 C-6.96 3 -10.92 3 -15 3 C-5 -2 -5 -2 0 0 Z " fill="#CEAB44" transform="translate(628,129)"/>
<path d="M0 0 C0.33 0.99 0.66 1.98 1 3 C0.21625 3.2475 -0.5675 3.495 -1.375 3.75 C-4.32317108 5.15389099 -4.9024777 6.00675737 -6 9 C-6.66 9 -7.32 9 -8 9 C-6.4169423 4.7257442 -3.49431596 2.73468206 0 0 Z " fill="#212D3B" transform="translate(334,562)"/>
<path d="M0 0 C1.32 0 2.64 0 4 0 C3.67 0.99 3.34 1.98 3 3 C2.67 3 2.34 3 2 3 C1.67 7.29 1.34 11.58 1 16 C0.67 16 0.34 16 0 16 C0 10.72 0 5.44 0 0 Z " fill="#27333D" transform="translate(771,557)"/>
<path d="M0 0 C0.99 0.33 1.98 0.66 3 1 C5.14255793 0.61067144 5.14255793 0.61067144 7 0 C6.67 2.31 6.34 4.62 6 7 C5.34 7 4.68 7 4 7 C2.02 3.535 2.02 3.535 0 0 Z " fill="#151423" transform="translate(493,194)"/>
<path d="M0 0 C2 2 2 2 2 5 C2.66 5 3.32 5 4 5 C3.67 5.66 3.34 6.32 3 7 C1.66402348 6.19185349 0.331275 5.37836819 -1 4.5625 C-1.7425 4.11003906 -2.485 3.65757812 -3.25 3.19140625 C-3.8275 2.79824219 -4.405 2.40507812 -5 2 C-5 1.67 -5 1.34 -5 1 C-2.625 0.375 -2.625 0.375 0 0 Z " fill="#161320" transform="translate(447,146)"/>
<path d="M0 0 C0.66 0.99 1.32 1.98 2 3 C1.67 3.66 1.34 4.32 1 5 C1.66 5.33 2.32 5.66 3 6 C1.68 6.99 0.36 7.98 -1 9 C-1.66 8.67 -2.32 8.34 -3 8 C-2.01 5.36 -1.02 2.72 0 0 Z " fill="#182536" transform="translate(659,593)"/>
<path d="M0 0 C1.65 0.99 3.3 1.98 5 3 C4.34 4.32 3.68 5.64 3 7 C2.34 7 1.68 7 1 7 C0.67 4.69 0.34 2.38 0 0 Z " fill="#D84F49" transform="translate(459,160)"/>
<path d="M0 0 C0.66 0.33 1.32 0.66 2 1 C-1.96 4.465 -1.96 4.465 -6 8 C-6.66 7.67 -7.32 7.34 -8 7 C-5.36 4.69 -2.72 2.38 0 0 Z " fill="#192433" transform="translate(542,139)"/>
<path d="M0 0 C2.91517292 1.07401108 4.77810176 1.77810176 7 4 C4.36 4 1.72 4 -1 4 C-0.67 2.68 -0.34 1.36 0 0 Z " fill="#152234" transform="translate(444,119)"/>
<path d="M0 0 C3.36591866 1.44253657 5.51047079 3.33264727 8 6 C7.67 6.66 7.34 7.32 7 8 C5.2925002 6.71937515 3.62626404 5.38232443 2 4 C2 3.34 2 2.68 2 2 C1.34 2 0.68 2 0 2 C0 1.34 0 0.68 0 0 Z " fill="#B54C4D" transform="translate(474,173)"/>
<path d="M0 0 C0.66 0.33 1.32 0.66 2 1 C-0.12055614 4.1808342 -1.63050557 5.31525278 -5 7 C-5.66 6.67 -6.32 6.34 -7 6 C-4.69 4.02 -2.38 2.04 0 0 Z " fill="#DCBA4F" transform="translate(561,158)"/>
</svg>
